<svg width="54" height="54" viewBox="0 0 54 54" fill="none" xmlns="http://www.w3.org/2000/svg">
<circle cx="27" cy="27" r="27" fill="#070707"/>
<path fill-rule="evenodd" clip-rule="evenodd" d="M27.0084 8.88492L25.5938 10.248L34.2814 18.6198L32.2183 20.608L23.5315 12.2355L15.1601 20.3023L23.8479 28.6741L21.7848 30.6621L13.0972 22.29L8.20361 27.0059L26.9933 45.1128L28.408 43.7496L19.7204 35.3779L21.7837 33.3896L30.4713 41.7614L38.8417 33.6955L30.1541 25.3235L32.2172 23.3355L40.905 31.7071L45.7986 26.9916L27.0084 8.88492ZM21.4673 16.9508L23.5305 14.9627L30.8036 21.9712L28.7405 23.9594L21.4673 16.9508ZM17.9896 20.3023L20.0527 18.3141L27.3257 25.3228L25.2625 27.3108L17.9896 20.3023ZM33.6318 21.9724L35.696 19.9831L42.9692 26.9916L40.905 28.9807L33.6318 21.9724ZM11.0326 27.0061L13.097 25.0168L20.3702 32.0255L18.3058 34.0145L11.0326 27.0061ZM26.6761 28.6751L28.7393 26.6868L36.0124 33.6955L33.9493 35.6835L26.6761 28.6751ZM23.1982 32.0265L25.2613 30.0384L32.5344 37.0467L30.4713 39.0349L23.1982 32.0265Z" fill="white"/>
</svg>
