<svg width="159" height="54" viewBox="0 0 159 54" fill="none" xmlns="http://www.w3.org/2000/svg">
<circle cx="27" cy="27" r="27" fill="#070707"/>
<path fill-rule="evenodd" clip-rule="evenodd" d="M27.0084 8.88477L25.5938 10.2479L34.2814 18.6197L32.2183 20.6079L23.5315 12.2353L15.1601 20.3022L23.8479 28.6739L21.7848 30.662L13.0972 22.2898L8.20361 27.0057L26.9933 45.1126L28.408 43.7494L19.7204 35.3777L21.7837 33.3894L30.4713 41.7612L38.8417 33.6954L30.1541 25.3234L32.2172 23.3354L40.905 31.7069L45.7986 26.9914L27.0084 8.88477ZM21.4673 16.9506L23.5305 14.9626L30.8036 21.971L28.7405 23.9592L21.4673 16.9506ZM17.9896 20.3022L20.0527 18.3139L27.3257 25.3226L25.2625 27.3106L17.9896 20.3022ZM33.6318 21.9722L35.696 19.983L42.9692 26.9914L40.905 28.9805L33.6318 21.9722ZM11.0326 27.0059L13.097 25.0167L20.3702 32.0253L18.3058 34.0143L11.0326 27.0059ZM26.6761 28.675L28.7393 26.6867L36.0124 33.6954L33.9493 35.6834L26.6761 28.675ZM23.1982 32.0263L25.2613 30.0383L32.5344 37.0466L30.4713 39.0348L23.1982 32.0263Z" fill="white"/>
<path fill-rule="evenodd" clip-rule="evenodd" d="M75.4381 28.223L77.7451 20.6459C77.817 20.4094 77.984 20.215 78.1144 20.215C78.2447 20.215 78.4118 20.4094 78.4837 20.6459L80.7893 28.223H75.4381ZM85.9504 33.7864H84.8574C84.6143 33.7864 84.3523 33.5934 84.2789 33.3568L80.2625 20.6459C80.1878 20.4094 80.3263 20.215 80.5694 20.215H80.993C81.236 20.215 81.4357 20.011 81.4357 19.7636V19.0607C81.4357 18.8118 81.236 18.6079 80.993 18.6079H75.4015C75.1584 18.6079 74.9588 18.8118 74.9588 19.0607V19.7636C74.9588 20.0124 75.1584 20.215 75.4015 20.215H75.8251C76.0681 20.215 76.2066 20.408 76.132 20.6459L72.1155 33.3568C72.0408 33.5934 71.7801 33.7864 71.5371 33.7864H70.4427C70.1996 33.7864 70 33.9904 70 34.2378V34.9407C70 35.1895 70.1996 35.3921 70.4427 35.3921H75.6798C75.9229 35.3921 76.1225 35.1882 76.1225 34.9407V34.2378C76.1225 33.989 75.9229 33.7864 75.6798 33.7864H74.1862C73.9431 33.7864 73.8019 33.592 73.8752 33.3555L74.9629 29.7838H81.2632L82.3508 33.3555C82.4242 33.592 82.2829 33.7864 82.0385 33.7864H80.5449C80.3019 33.7864 80.1023 33.9904 80.1023 34.2378V34.9407C80.1023 35.1895 80.3019 35.3921 80.5449 35.3921H85.9477C86.1908 35.3921 86.3904 35.1882 86.3904 34.9407V34.2378C86.3904 33.989 86.1921 33.7864 85.9477 33.7864H85.9504Z" fill="black"/>
<path fill-rule="evenodd" clip-rule="evenodd" d="M102.349 30.0938H101.504C101.264 30.0938 101.069 30.2977 101.069 30.5465V33.3351C101.069 33.5839 100.872 33.7864 100.633 33.7864H95.1525C94.9121 33.7864 94.7166 33.5825 94.7166 33.3351V20.6663C94.7166 20.4175 94.9121 20.215 95.1525 20.215H96.6909C96.9312 20.215 97.1267 20.011 97.1267 19.7636V19.0607C97.1267 18.8118 96.9312 18.6079 96.6909 18.6079H91.1414C90.9011 18.6079 90.7056 18.8118 90.7056 19.0607V19.7636C90.7056 20.0124 90.9011 20.215 91.1414 20.215H92.5414C92.7817 20.215 92.9772 20.4189 92.9772 20.6663V33.3337C92.9772 33.5825 92.7803 33.7851 92.5414 33.7851H91.1414C90.9011 33.7851 90.7056 33.989 90.7056 34.2365V34.9394C90.7056 35.1882 90.9011 35.3908 91.1414 35.3908H102.348C102.588 35.3908 102.783 35.1868 102.783 34.9394V30.5452C102.783 30.2964 102.587 30.0924 102.348 30.0924L102.349 30.0938Z" fill="black"/>
<path fill-rule="evenodd" clip-rule="evenodd" d="M119.594 30.1658H118.729C118.483 30.1658 118.282 30.3698 118.282 30.6186V33.3351C118.282 33.5839 118.081 33.7864 117.834 33.7864H111.662C111.417 33.7864 111.214 33.5825 111.214 33.3351V28.2311C111.214 27.9823 111.415 27.7797 111.662 27.7797H116.002C116.248 27.7797 116.449 27.5758 116.449 27.3284V26.6717C116.449 26.4229 116.248 26.2203 116.002 26.2203H111.662C111.417 26.2203 111.214 26.0164 111.214 25.7689V20.6663C111.214 20.4175 111.415 20.215 111.662 20.215H117.69C117.937 20.215 118.138 20.4189 118.138 20.6663V23.0715C118.138 23.3203 118.339 23.5229 118.585 23.5229H119.451C119.697 23.5229 119.899 23.3189 119.899 23.0715V19.0607C119.899 18.8118 119.698 18.6079 119.451 18.6079H107.545C107.3 18.6079 107.097 18.8118 107.097 19.0607V19.7636C107.097 20.0124 107.298 20.215 107.545 20.215H108.982C109.229 20.215 109.43 20.4189 109.43 20.6663V33.3337C109.43 33.5825 109.229 33.7851 108.982 33.7851H107.545C107.3 33.7851 107.097 33.989 107.097 34.2365V34.9394C107.097 35.1882 107.298 35.3908 107.545 35.3908H119.592C119.839 35.3908 120.04 35.1868 120.04 34.9394V30.6172C120.04 30.3684 119.839 30.1645 119.592 30.1645L119.594 30.1658Z" fill="black"/>
<path fill-rule="evenodd" clip-rule="evenodd" d="M156.15 20.215H157.563C157.804 20.215 158.003 20.011 158.003 19.7636V19.0607C158.003 18.8118 157.804 18.6079 157.563 18.6079H152.008C151.766 18.6079 151.566 18.8118 151.566 19.0607V19.7636C151.566 20.0124 151.765 20.215 152.008 20.215H153.515C153.757 20.215 153.955 20.4189 153.955 20.6663V25.7689C153.955 26.0177 153.757 26.2203 153.515 26.2203H146.532C146.29 26.2203 146.092 26.0177 146.092 25.7689V20.6663C146.092 20.4175 146.29 20.215 146.532 20.215H148.037C148.279 20.215 148.477 20.011 148.477 19.7636V19.0607C148.477 18.8118 148.279 18.6079 148.037 18.6079H142.481C142.24 18.6079 142.041 18.8118 142.041 19.0607V19.7636C142.041 20.0124 142.24 20.215 142.481 20.215H143.895C144.136 20.215 144.335 20.4189 144.335 20.6663V33.3337C144.335 33.5811 144.136 33.7851 143.895 33.7851H142.481C142.24 33.7851 142.041 33.989 142.041 34.2365V34.9394C142.041 35.1882 142.24 35.3908 142.481 35.3908H148.037C148.279 35.3908 148.477 35.1868 148.477 34.9394V34.2365C148.477 33.9877 148.279 33.7851 148.037 33.7851H146.532C146.29 33.7851 146.092 33.5811 146.092 33.3337V28.2311C146.092 27.9823 146.29 27.7797 146.532 27.7797H153.515C153.757 27.7797 153.955 27.9837 153.955 28.2311V33.3337C153.955 33.5811 153.757 33.7851 153.515 33.7851H152.008C151.766 33.7851 151.566 33.989 151.566 34.2365V34.9394C151.566 35.1882 151.765 35.3908 152.008 35.3908H157.563C157.804 35.3908 158.003 35.1868 158.003 34.9394V34.2365C158.003 33.9877 157.804 33.7851 157.563 33.7851H156.15C155.909 33.7851 155.711 33.5811 155.711 33.3337V20.6663C155.711 20.4175 155.909 20.215 156.15 20.215Z" fill="black"/>
<path fill-rule="evenodd" clip-rule="evenodd" d="M135.984 25.7689C135.984 26.0177 135.787 26.2203 135.545 26.2203H129.678C129.438 26.2203 129.241 26.0177 129.241 25.7689V20.6663C129.241 20.4175 129.438 20.215 129.678 20.215H135.545C135.787 20.215 135.984 20.4189 135.984 20.6663V25.7689ZM137.291 18.6079H125.656C125.416 18.6079 125.219 18.8105 125.219 19.0593V19.7636C125.219 20.0124 125.416 20.215 125.656 20.215H127.06C127.301 20.215 127.497 20.4189 127.497 20.6663V33.3351C127.497 33.5839 127.301 33.7864 127.06 33.7864H125.656C125.416 33.7864 125.219 33.989 125.219 34.2378V34.9407C125.219 35.1895 125.416 35.3921 125.656 35.3921H131.176C131.416 35.3921 131.613 35.1895 131.613 34.9407V34.2378C131.613 33.989 131.416 33.7864 131.176 33.7864H129.679C129.439 33.7864 129.242 33.5825 129.242 33.3351V28.2325C129.242 27.9837 129.439 27.7811 129.679 27.7811H137.291C137.532 27.7811 137.729 27.5785 137.729 27.3297V19.0593C137.729 18.8105 137.532 18.6079 137.291 18.6079Z" fill="black"/>
</svg>
